<svg xmlns="http://www.w3.org/2000/svg" viewBox="0 0 24 24"><g fill="none" stroke="#303c42" stroke-linecap="round" stroke-linejoin="round" data-name="&lt;Group&gt;"><path d="M12 .5h0a3.3 3.3 0 0 1 1.83.55l8.78 5.85a2 2 0 0 1 .89 1.66v6.86a2 2 0 0 1-.89 1.66l-8.78 5.85a3.3 3.3 0 0 1-1.83.57h0a3.3 3.3 0 0 1-1.83-.55l-8.78-5.86a2 2 0 0 1-.89-1.66V8.57a2 2 0 0 1 .89-1.66l8.78-5.85A3.3 3.3 0 0 1 12 .5Z" data-name="&lt;Path&gt;"/><path d="M10.5 3.5v5l-3 2-4-2.5 7-4.5zM13.5 3.5v5l3 2 4-2.5-7-4.5zM13.5 20.5v-5l3-2 4 2.5-7 4.5zM10.5 20.5v-5l-3-2-4 2.5 7 4.5zM2.5 10.5 5 12l-2.5 1.5v-3zM21.5 13.5 19 12l2.5-1.5v3zM12 10l-3 2 3 2 3-2-3-2z" data-name="&lt;Path&gt;"/></g></svg>