<svg xmlns="http://www.w3.org/2000/svg" viewBox="0 0 64 64"><g data-name="Outline"><path d="M32 15a17 17 0 1 0 17 17 17.019 17.019 0 0 0-17-17Zm0 32a15 15 0 1 1 15-15 15.017 15.017 0 0 1-15 15Z"/><path d="M26.18 24.7a1 1 0 0 0-1.4.191l-4.949 6.5a1 1 0 0 0 0 1.21l4.949 6.5a1 1 0 1 0 1.59-1.201L21.882 32l4.488-5.895a1 1 0 0 0-.19-1.405zm11.62.005a1 1 0 0 0-.188 1.4L42.117 32l-4.5 5.894a1 1 0 1 0 1.59 1.212l4.964-6.5a1 1 0 0 0 0-1.212l-4.964-6.5a1 1 0 0 0-1.407-.189zm-4.156-.182a1 1 0 0 0-1.191.763l-2.844 13a1 1 0 1 0 1.953.428l2.844-13a1 1 0 0 0-.762-1.191z"/><path d="M59 25.883h-4.664a23 23 0 0 0-2.219-5.349l3.3-3.3a3 3 0 0 0 0-4.24l-4.409-4.41a3 3 0 0 0-4.242 0l-3.3 3.3a23 23 0 0 0-5.349-2.219V5a3 3 0 0 0-3-3h-6.234a3 3 0 0 0-3 3v4.664a23 23 0 0 0-5.349 2.219l-3.3-3.3a3.012 3.012 0 0 0-4.241 0l-4.41 4.409a3 3 0 0 0 0 4.242l3.3 3.3a23 23 0 0 0-2.219 5.349H5a3 3 0 0 0-3 3v6.234a3 3 0 0 0 3 3h4.664a23 23 0 0 0 2.219 5.349l-3.3 3.3a3.012 3.012 0 0 0 0 4.241l4.409 4.41a3.007 3.007 0 0 0 4.243 0l3.3-3.3a23 23 0 0 0 5.349 2.219V59a3 3 0 0 0 3 3h6.234a3 3 0 0 0 3-3v-4.664a23 23 0 0 0 5.349-2.219l3.3 3.3a3 3 0 0 0 4.24 0l4.41-4.409a3.006 3.006 0 0 0 0-4.243l-3.3-3.3a23 23 0 0 0 2.219-5.349H59a3 3 0 0 0 3-3v-6.233a3 3 0 0 0-3-3Zm1 9.234a1 1 0 0 1-1 1h-5.44a1 1 0 0 0-.973.77A21.057 21.057 0 0 1 50.01 43.1a1 1 0 0 0 .143 1.232L54 48.18a1 1 0 0 1 0 1.42L49.6 54a1 1 0 0 1-1.412 0l-3.858-3.847a1 1 0 0 0-1.23-.143 21.057 21.057 0 0 1-6.211 2.577 1 1 0 0 0-.77.973V59a1 1 0 0 1-1 1h-6.236a1 1 0 0 1-1-1v-5.44a1 1 0 0 0-.77-.973A21.057 21.057 0 0 1 20.9 50.01a1 1 0 0 0-1.232.143L15.82 54a1 1 0 0 1-1.415 0L10 49.6a1 1 0 0 1 0-1.412l3.853-3.853a1 1 0 0 0 .137-1.235 21.057 21.057 0 0 1-2.577-6.211 1 1 0 0 0-.973-.77H5a1 1 0 0 1-1-1v-6.236a1 1 0 0 1 1-1h5.44a1 1 0 0 0 .973-.77A21.057 21.057 0 0 1 13.99 20.9a1 1 0 0 0-.143-1.232L10 15.819a1 1 0 0 1 0-1.414L14.405 10a1 1 0 0 1 1.412 0l3.853 3.853a1 1 0 0 0 1.232.143 21.057 21.057 0 0 1 6.211-2.577 1 1 0 0 0 .77-.973V5a1 1 0 0 1 1-1h6.234a1 1 0 0 1 1 1v5.44a1 1 0 0 0 .77.973A21.057 21.057 0 0 1 43.1 13.99a1 1 0 0 0 1.232-.143L48.181 10a1 1 0 0 1 1.419 0l4.4 4.405a1 1 0 0 1 0 1.412l-3.847 3.853a1 1 0 0 0-.143 1.23 21.057 21.057 0 0 1 2.577 6.211 1 1 0 0 0 .973.77H59a1 1 0 0 1 1 1Z"/></g></svg>