<svg xmlns="http://www.w3.org/2000/svg" enable-background="new 0 0 66 66" viewBox="0 0 66 66"><path d="M13.5066 40.7564c-.1733 0-.3456-.0464-.5-.1383L1.4697 33.6807C1.178 33.5045 1 33.1892 1 32.8492s.178-.6553.4697-.8314l11.5369-6.9366c.3087-.1837.6913-.1837 1 0l11.536 6.9366c.2917.1761.4697.4915.4697.8314s-.178.6553-.4697.8314l-11.536 6.9375C13.8523 40.71 13.6799 40.7564 13.5066 40.7564zM3.8513 32.8492l9.6553 5.8059 9.6544-5.8059-9.6544-5.8049L3.8513 32.8492zM17.3551 60.7678c-.1676 0-.3352-.0436-.4848-.1297-.2945-.1705-.4782-.482-.4848-.8229l-.2396-13.4593c-.0066-.3589.1856-.6913.5-.8655l11.7756-6.5227c.2973-.1638.661-.161.9545.0085.2945.1705.4782.482.4848.8229l.2396 13.4593c.0066.3589-.1856.6913-.5.8655l-11.7756 6.5227C17.679 60.7271 17.517 60.7678 17.3551 60.7678zM18.0956 46.9041l.2008 11.2642 9.8542-5.4583-.2008-11.2642L18.0956 46.9041zM48.3854 60.9174c-.1619 0-.3239-.0407-.4697-.1212l-11.7756-6.5227c-.3144-.1742-.5066-.5066-.5-.8655l.2396-13.4583c.0066-.3409.1903-.6525.4848-.8229.2945-.1695.6581-.1723.9545-.0085l11.7756 6.5218c.3144.1742.5066.5066.5.8655l-.2396 13.4593c-.0066.3409-.1903.6525-.4848.8229C48.7206 60.8738 48.553 60.9174 48.3854 60.9174zM37.59 52.8596l9.8542 5.4583.2008-11.2642-9.8542-5.4574L37.59 52.8596zM52.4943 41.0566c-.1733 0-.3456-.0464-.5-.1383l-11.536-6.9375c-.2917-.1761-.4697-.4915-.4697-.8314s.178-.6553.4697-.8314l11.536-6.9366c.3087-.1837.6913-.1837 1 0l11.536 6.9366C64.822 32.4941 65 32.8095 65 33.1494s-.178.6553-.4697.8314l-11.536 6.9375C52.84 41.0102 52.6676 41.0566 52.4943 41.0566zM42.84 33.1494l9.6544 5.8059 9.6544-5.8059-9.6544-5.8049L42.84 33.1494zM37.1089 27.1532c-.1676 0-.3352-.0436-.4848-.1297-.2945-.1705-.4782-.482-.4848-.8229l-.2396-13.4593c-.0066-.3589.1856-.6913.5-.8655L48.1752 5.353c.2973-.1638.66-.161.9545.0085.2945.1705.4782.482.4848.8229l.2396 13.4593c.0066.3589-.1856.6913-.5.8655L37.5786 27.032C37.4328 27.1125 37.2708 27.1532 37.1089 27.1532zM37.8494 13.2896l.2008 11.2642 9.8542-5.4583L47.7036 7.8312 37.8494 13.2896zM29.1515 27.0026c-.1619 0-.3239-.0407-.4697-.1212l-11.7756-6.5218c-.3144-.1742-.5066-.5066-.5-.8655l.2386-13.4593c.0066-.34.1903-.6525.4848-.8229.2945-.1695.6581-.1723.9545-.0085l11.7765 6.5218c.3144.1742.5066.5066.5.8655L30.1212 26.05c-.0066.34-.1903.6525-.4848.8229C29.4867 26.9591 29.3191 27.0026 29.1515 27.0026zM18.3561 18.9458l9.8542 5.4574L28.411 13.139l-9.8551-5.4574L18.3561 18.9458z"/><circle cx="33" cy="33" r="5.217"/></svg>