<svg xmlns="http://www.w3.org/2000/svg" viewBox="0 0 64 64"><path d="M3.687,21.657H5.515v1.828a1,1,0,0,0,1,1H8.343v1.828a1,1,0,0,0,.617.924.987.987,0,0,0,.383.076,1,1,0,0,0,.707-.292L12,25.071v5.515l-1,1L9.707,30.293A1,1,0,0,0,8,31V49a1,1,0,0,0,1.707.707L11,48.414l1,1V52h2V23.071L22.071,15H41.929L50,23.071V58a2,2,0,0,1-4,0V57a1,1,0,0,0-1-1H14V53.959H12V56H9a1,1,0,0,0-1,1v1a4,4,0,0,0,4,4H48a4,4,0,0,0,4-4V49.414l1-1,1.293,1.293A1,1,0,0,0,56,49V31a1,1,0,0,0-1.707-.707L53,31.586l-1-1V25.071l1.95,1.95a1,1,0,0,0,.707.292.987.987,0,0,0,.383-.076,1,1,0,0,0,.617-.924V24.485h1.828a1,1,0,0,0,1-1V21.657h1.828a1,1,0,0,0,.708-1.707L50.374,9.3,48.96,10.717l8.939,8.94h-.414a1,1,0,0,0-1,1v1.828H54.657a1,1,0,0,0-1,1V23.9L40.1,10.343h.414a1,1,0,0,0,1-1V7.515h1.828a1,1,0,0,0,1-1V6.1L46.95,8.707l1.414-1.414L44.05,2.979a1,1,0,0,0-1.707.708V5.515H40.515a1,1,0,0,0-1,1V8.343H37.687a1,1,0,0,0-.708,1.707L39.929,13H24.071l2.95-2.95a1,1,0,0,0-.708-1.707H24.485V6.515a1,1,0,0,0-1-1H21.657V3.687a1,1,0,0,0-1.707-.708L2.979,19.95a1,1,0,0,0,.708,1.707Zm8.02,24.636a1,1,0,0,0-1.414,0L10,46.586V33.414l.293.293a1,1,0,0,0,1.414,0L12,33.414V46.586ZM12,60a2,2,0,0,1-2-2H44a3.97,3.97,0,0,0,.537,2ZM52.293,33.707a1,1,0,0,0,1.414,0L54,33.414V46.586l-.293-.293a1,1,0,0,0-1.414,0L52,46.586V33.414ZM19.657,6.1v.414a1,1,0,0,0,1,1h1.828V9.343a1,1,0,0,0,1,1H23.9L10.343,23.9v-.414a1,1,0,0,0-1-1H7.515V20.657a1,1,0,0,0-1-1H6.1Z"/><path d="M46,22a1,1,0,0,0-1-1H19a1,1,0,0,0-1,1V44a1,1,0,0,0,1,1H45a1,1,0,0,0,1-1ZM39,32h1v6H32V32h3a1,1,0,0,0,1-1V27h.5A1.5,1.5,0,0,1,38,28.5V31A1,1,0,0,0,39,32Zm-9,7H20V31H30Zm14,4H20V41H31a1,1,0,0,0,1-1h8a2,2,0,0,0,2-2V32a2,2,0,0,0-2-2V28.5A3.5,3.5,0,0,0,36.5,25H35a1,1,0,0,0-1,1v4H32a1,1,0,0,0-1-1H20V23H44Z"/><rect width="10" height="2" x="18" y="47"/><rect width="16" height="2" x="30" y="47"/><rect width="28" height="2" x="18" y="51"/><rect width="2" height="2" x="26" y="36"/></svg>